<svg xmlns="http://www.w3.org/2000/svg" aria-hidden="true" style="position:absolute;width:0;height:0;overflow:hidden">
  <defs>
    <symbol id="icon-arrow_back" viewBox="0 0 32 32">
      <path stroke-width="1.333" d="M16.01 6.249c.114 0 .212.035.322.145a.45.45 0 0 1 .145.332.43.43 0 0 1-.145.324L7.85 15.532h17.88a.45.45 0 0 1 .477.469c0 .16-.046.255-.129.337a.46.46 0 0 1-.348.132H7.85l8.474 8.473c.11.11.147.212.148.335v.001a.4.4 0 0 1-.074.246l-.069.082a.42.42 0 0 1-.323.142.46.46 0 0 1-.341-.151l-9.264-9.264a.5.5 0 0 1-.121-.167v-.001q-.03-.071-.031-.165c-.001-.094.012-.116.031-.163v-.001a.6.6 0 0 1 .121-.167l9.267-9.267a.47.47 0 0 1 .342-.152z"/>
    </symbol>
    <symbol id="icon-arrow_forward" viewBox="0 0 32 32">
      <path stroke-width="1.333" d="M15.993 6.253a.43.43 0 0 1 .259.081l.082.07 9.264 9.264a.5.5 0 0 1 .121.167v.001q.03.071.031.165c.001.094-.012.116-.031.163v.001a.6.6 0 0 1-.121.167l-9.272 9.264c-.122.12-.227.155-.337.155-.108 0-.204-.033-.315-.147l-.007-.007-.069-.081c-.056-.079-.075-.157-.075-.243s.02-.163.075-.242l.069-.081 8.482-8.482H6.269c-.163 0-.259-.047-.34-.128h-.001a.44.44 0 0 1-.128-.341c0-.162.046-.26.128-.341h.001c.081-.081.177-.127.34-.128h17.88l-8.474-8.474a.47.47 0 0 1-.141-.246l-.008-.09a.42.42 0 0 1 .141-.326l.001-.001a.42.42 0 0 1 .324-.142z"/>
    </symbol>
    <symbol id="icon-arrow_outward" viewBox="0 0 32 32">
      <path d="M21.72 10.401 8.926 23.203q-.347.34-.8.34c-.453 0-.565-.116-.792-.348q-.348-.348-.348-.8c0-.452.116-.568.348-.8L20.128 8.801H8.863q-.489 0-.816-.329c-.327-.329-.327-.49-.327-.812q0-.483.327-.806c.327-.323.49-.323.816-.323h14q.481 0 .808.328c.327.328.327.488.327.808v14q0 .481-.329.808c-.329.327-.49.328-.812.328q-.491 0-.815-.328c-.324-.328-.323-.487-.323-.808V10.402z"/>
    </symbol>
    <symbol id="icon-close" viewBox="0 0 32 32">
      <path stroke-width="1.333" d="M23.466 7.9c.219 0 .355.065.462.172s.172.242.172.461-.065.355-.172.462L16.923 16l7.005 7.004c.107.107.172.243.172.462s-.065.355-.172.462-.243.172-.462.172-.355-.065-.462-.172L16 16.923l-7.005 7.005c-.107.107-.243.172-.462.172s-.354-.065-.461-.172-.172-.243-.172-.462.065-.355.172-.462L15.076 16 8.072 8.995c-.107-.107-.172-.243-.172-.462s.065-.354.172-.461.242-.172.461-.172.355.065.462.172L16 15.076l7.004-7.004c.107-.107.243-.172.462-.172"/>
    </symbol>
    <symbol id="icon-Facebook" viewBox="0 0 32 32">
      <path d="M29.333 16.405C29.333 8.996 23.364 2.99 16 2.99S2.667 8.996 2.667 16.405c0 6.696 4.876 12.245 11.25 13.252v-9.374h-3.385v-3.878h3.385V13.45c0-3.362 1.991-5.219 5.036-5.219 1.459 0 2.985.262 2.985.262v3.301h-1.681c-1.656 0-2.173 1.034-2.173 2.095v2.516h3.698l-.591 3.878h-3.107v9.374c6.374-1.006 11.25-6.556 11.25-13.252z"/>
    </symbol>
    <symbol id="icon-Favicon" viewBox="0 0 32 32">
      <path fill="#fceaea" d="M0 0h32v32H0z" style="fill:var(--color1, #fceaea)"/>
      <path fill="#080c0c" d="M25.718 22.545q.807.418 1.361-.269c.554-.687.414-.936.134-1.435l-2.123-4.005-1.615 4.393zm-6.339-1.255h2.108l2.886-7.232q.18-.418.134-.822c-.046-.404-.194-.473-.493-.613l-2.482-1.076q-.419-.208-.837 0c-.418.208-.429.349-.449.628zm-8.858 0h2.07l-.837-9.115q-.03-.448-.404-.658c-.374-.21-.543-.13-.882.03l-2.362 1.016q-.389.15-.434.672c-.045.522.005.662.105.941zm-4.239 1.255 2.243-1.315-1.615-4.393-2.123 4.154q-.418.837.179 1.36c.597.523.837.413 1.316.194m8.103-1.255h3.199l.987-10.879q.06-.418-.224-.702c-.284-.284-.424-.284-.703-.284h-3.289q-.478 0-.718.284c-.24.284-.229.423-.209.702zm-8.761 3.243q-1.237 0-2.092-.883c-.855-.883-.854-1.296-.854-2.12q0-.38.135-.742c.135-.362.189-.478.298-.712l2.729-5.285q-.449-1.215-.057-2.405c.392-1.19.766-1.354 1.518-1.682l2.482-1.016q.479-.18.972-.213c.493-.033.635.054.919.228q.21-.978.957-1.606c.747-.628 1.072-.628 1.724-.628h3.289q.978 0 1.724.583c.746.583.817.899.957 1.531q.449-.172.93-.139c.481.033.631.103.931.243l2.512 1.016q1.15.44 1.559 1.611c.409 1.171.245 1.547-.084 2.297l2.715 5.435q.127.343.28.678c.153.335.153.452.153.685q0 1.32-.943 2.221c-.943.901-1.386.902-2.271.902q-.343 0-.649-.138c-.306-.138-.41-.18-.619-.265l-1.795-.882H8.926l-1.698.882q-.38.156-.775.28c-.395.124-.54.123-.828.123z" style="fill:var(--color2, #080c0c)"/>
    </symbol>
    <symbol id="icon-Instagram" viewBox="0 0 32 32">
      <path d="M15.998 6.161c3.206 0 3.585.014 4.846.071 1.172.052 1.804.248 2.226.412.558.216.961.478 1.378.895.422.422.679.82.9 1.378.164.422.361 1.059.412 2.226.056 1.266.071 1.645.071 4.847s-.014 3.585-.071 4.847c-.052 1.172-.248 1.804-.412 2.227a3.7 3.7 0 0 1-.895 1.377c-.422.422-.82.679-1.378.9-.422.164-1.06.361-2.226.412-1.266.056-1.645.071-4.847.071s-3.585-.014-4.847-.071c-1.172-.052-1.804-.248-2.226-.412a3.7 3.7 0 0 1-1.378-.895 3.8 3.8 0 0 1-.9-1.378c-.164-.422-.361-1.06-.412-2.226-.056-1.266-.071-1.645-.071-4.847s.014-3.585.071-4.847c.052-1.172.248-1.804.412-2.226.216-.558.478-.961.895-1.378.422-.422.82-.679 1.378-.9.422-.164 1.059-.361 2.226-.412 1.261-.056 1.641-.071 4.847-.071zm0-2.16c-3.258 0-3.665.014-4.945.071-1.275.056-2.151.262-2.91.558a5.85 5.85 0 0 0-2.127 1.387A5.9 5.9 0 0 0 4.629 8.14c-.295.764-.502 1.636-.558 2.91C4.015 12.335 4 12.742 4 15.999s.014 3.665.071 4.945c.056 1.275.262 2.151.558 2.91a5.9 5.9 0 0 0 1.387 2.127 5.9 5.9 0 0 0 2.123 1.383c.764.295 1.636.502 2.91.558 1.279.056 1.687.071 4.945.071s3.666-.014 4.945-.071c1.275-.056 2.151-.262 2.91-.558.787-.305 1.458-.717 2.123-1.383s1.078-1.336 1.383-2.123c.295-.764.502-1.635.558-2.91.056-1.279.071-1.687.071-4.945s-.014-3.665-.071-4.945c-.056-1.275-.262-2.151-.558-2.91a5.6 5.6 0 0 0-1.373-2.133 5.9 5.9 0 0 0-2.123-1.383c-.764-.295-1.635-.502-2.91-.558-1.284-.061-1.692-.075-4.949-.075L15.999 4z"/>
      <path d="M15.998 9.836a6.164 6.164 0 1 0 6.163 6.163 6.164 6.164 0 0 0-6.163-6.163m0 10.161a3.998 3.998 0 1 1 0-7.996 3.998 3.998 0 0 1 0 7.996M23.843 9.592a1.439 1.439 0 1 1-2.877 0 1.439 1.439 0 0 1 2.877 0"/>
    </symbol>
    <symbol id="icon-keyboard_arrow_down" viewBox="0 0 32 32">
      <path d="M16 20.269q-.224 0-.422-.083a.96.96 0 0 1-.381-.265l-6.592-6.592q-.34-.34-.323-.812c.017-.472.13-.586.357-.812q.34-.34.812-.34c.472 0 .586.113.812.34l5.738 5.771 5.771-5.771q.34-.34.796-.323c.456.017.569.13.796.357q.34.34.34.812c0 .472-.113.586-.34.812l-6.559 6.559q-.183.183-.381.265a.9.9 0 0 1-.422.083z"/>
    </symbol>
    <symbol id="icon-logo_small_black" viewBox="0 0 144 32">
      <path d="M40.959 26.994q1.435.743 2.419-.478c.984-1.221.735-1.665.239-2.55l-3.774-7.12-2.871 7.81zm-11.27-2.231h3.746l5.131-12.858q.319-.744.239-1.461c-.08-.717-.345-.841-.877-1.089l-4.412-1.913q-.744-.372-1.489 0c-.745.372-.762.62-.797 1.116zm-15.748 0h3.681L16.134 8.558q-.053-.797-.718-1.169c-.665-.372-.966-.23-1.568.053l-4.2 1.806q-.691.266-.771 1.195c-.08.929.009 1.178.186 1.674l4.878 12.645zm-7.535 2.231 3.987-2.338-2.871-7.81-3.774 7.385q-.744 1.488.319 2.417c1.063.929 1.488.735 2.339.345zm14.406-2.231H26.5l1.754-19.34q.106-.744-.399-1.249c-.505-.505-.753-.505-1.249-.505h-5.847q-.85 0-1.276.505c-.426.505-.407.753-.372 1.249zM5.236 30.528q-2.2 0-3.718-1.57C0 27.388 0 26.654 0 25.188q0-.676.239-1.319c.239-.643.336-.85.531-1.265l4.852-9.396q-.798-2.161-.102-4.277c.696-2.116 1.362-2.407 2.698-2.991l4.412-1.806q.85-.32 1.728-.378c.878-.058 1.129.096 1.634.406q.374-1.739 1.701-2.855C19.02.191 19.599.19 20.759.19h5.847q1.738 0 3.066 1.037C31 2.264 31.124 2.826 31.373 3.949q.798-.306 1.654-.247c.856.059 1.123.183 1.654.431l4.465 1.806q2.043.782 2.771 2.864c.728 2.082.436 2.75-.15 4.084l4.827 9.662q.225.61.498 1.206c.273.596.272.803.272 1.218q0 2.346-1.677 3.949c-1.677 1.603-2.464 1.603-4.037 1.603q-.61 0-1.154-.245a24 24 0 0 0-1.1-.471l-3.192-1.568H11.106l-3.019 1.568q-.676.278-1.378.497c-.702.219-.959.219-1.473.219zM143.095 27.168a.72.72 0 0 1-.531-.212.8.8 0 0 1-.212-.561v-2.002h-2.139v-.197q-.804 0-1.426-.318c-.622-.318-.738-.506-.971-.88q-.35-.561-.349-1.305 0-.804.379-1.441a2.8 2.8 0 0 1 1.062-1.001q.683-.38 1.562-.379h2.624q.35 0 .561.212c.211.212.212.329.212.561v6.765a.8.8 0 0 1-.227.546q-.198.212-.546.212zm-5.385-.182q-.243-.212-.228-.47c.015-.258.071-.329.182-.47l1.851-2.412h2.017l-2.594 3.231q-.258.334-.637.319c-.379-.015-.45-.076-.592-.197zm2.76-3.869h1.881v-2.806h-1.881q-.606 0-1.062.394a1.22 1.22 0 0 0-.455.986q0 .638.455 1.031c.455.393.657.394 1.062.394zM134.518 27.168a.8.8 0 0 1-.561-.212.8.8 0 0 1-.212-.561v-6.75q0-.35.212-.561a.8.8 0 0 1 .561-.212q.35 0 .546.212c.196.212.197.329.197.561v6.75a.83.83 0 0 1-.197.561q-.198.212-.546.212m-6.235 0a.74.74 0 0 1-.546-.212.83.83 0 0 1-.197-.561v-6.75q0-.35.197-.561a.74.74 0 0 1 .546-.212q.35 0 .561.212c.211.212.212.329.212.561v6.75a.8.8 0 0 1-.212.561.76.76 0 0 1-.561.212m.577-3.626v-1.365h5.324v1.365zM117.8 30.717a.76.76 0 0 1-.561-.228.74.74 0 0 1-.212-.546v-6.917q.015-1.199.561-2.154c.546-.955.86-1.138 1.486-1.502q.94-.561 2.124-.561 1.199 0 2.139.561a4 4 0 0 1 1.487 1.502q.561.955.561 2.154c0 1.199-.172 1.517-.516 2.154a3.96 3.96 0 0 1-1.38 1.502 3.7 3.7 0 0 1-1.987.546 3.8 3.8 0 0 1-1.653-.364 4 4 0 0 1-1.274-1.016v4.096a.74.74 0 0 1-.212.546.73.73 0 0 1-.561.228zm3.398-4.854q.774 0 1.38-.364a2.73 2.73 0 0 0 .956-1.016q.364-.652.364-1.456 0-.819-.364-1.456a2.6 2.6 0 0 0-.956-1.016 2.55 2.55 0 0 0-1.38-.379q-.759 0-1.38.379a2.6 2.6 0 0 0-.956 1.016q-.35.637-.349 1.456 0 .804.349 1.456.349.638.956 1.016a2.7 2.7 0 0 0 1.38.364M111.657 27.228q-1.259 0-2.245-.531a4.1 4.1 0 0 1-1.532-1.487q-.546-.956-.546-2.184 0-1.243.516-2.184a3.8 3.8 0 0 1 1.456-1.487q.926-.546 2.124-.546 1.183 0 2.033.531.85.516 1.289 1.441.455.91.455 2.109a.66.66 0 0 1-.197.485.7.7 0 0 1-.501.182h-6.113v-1.213h6.068l-.622.425a3.2 3.2 0 0 0-.303-1.35q-.288-.606-.819-.956c-.531-.35-.784-.349-1.289-.349q-.864 0-1.487.379a2.45 2.45 0 0 0-.925 1.047q-.319.652-.319 1.487c0 .835.126 1.052.379 1.487q.38.653 1.047 1.031c.667.378.956.379 1.532.379q.47 0 .956-.167.501-.182.804-.409a.8.8 0 0 1 .485-.167q.273-.016.47.152.258.228.273.501c.015.273-.071.339-.243.47q-.516.41-1.289.667a4.5 4.5 0 0 1-1.456.258zM104.565 27.183a.8.8 0 0 1-.561-.212.8.8 0 0 1-.212-.561v-4.338q0-.955-.47-1.411-.47-.47-1.229-.47-.789 0-1.305.546-.501.546-.501 1.396h-1.259q0-.986.425-1.729.424-.759 1.183-1.183.774-.425 1.759-.425.865 0 1.532.379c.667.379.789.627 1.031 1.122q.38.728.379 1.775v4.338q0 .335-.212.561-.212.213-.561.212zm-10.118 0a.8.8 0 0 1-.561-.212.8.8 0 0 1-.212-.561v-6.75q0-.35.212-.561a.8.8 0 0 1 .561-.212q.35 0 .561.212c.211.212.212.329.212.561v6.75q0 .335-.212.561a.76.76 0 0 1-.561.212m5.067 0a.8.8 0 0 1-.561-.212.8.8 0 0 1-.212-.561v-4.338q0-.955-.47-1.411-.47-.47-1.229-.47-.789 0-1.305.546c-.516.546-.516.829-.516 1.396h-.956q0-.986.394-1.729.395-.759 1.092-1.183c.697-.424.996-.425 1.593-.425q.864 0 1.532.379c.668.379.789.627 1.031 1.122q.38.728.379 1.775v4.338q0 .335-.212.561a.76.76 0 0 1-.561.212zM88.477 27.228q-1.213 0-2.169-.546a4.15 4.15 0 0 1-1.487-1.502q-.531-.956-.531-2.154 0-1.228.531-2.184c.531-.956.839-1.133 1.456-1.487q.925-.546 2.124-.546.895 0 1.638.349a3.84 3.84 0 0 1 1.335 1.016q.212.243.152.501c-.06.258-.152.324-.334.455a.6.6 0 0 1-.47.106.97.97 0 0 1-.47-.273q-.742-.789-1.851-.789-.774 0-1.365.364-.592.349-.925.986c-.333.637-.334.925-.334 1.502q0 .819.334 1.456.349.638.956 1.016.607.364 1.411.364.53 0 .925-.121a2.3 2.3 0 0 0 .743-.41.88.88 0 0 1 .5-.212.57.57 0 0 1 .455.137q.258.212.288.485a.55.55 0 0 1-.182.47q-1.092 1.016-2.73 1.016zM78.015 27.244q-1.047 0-1.881-.44a3.34 3.34 0 0 1-1.305-1.32q-.47-.864-.47-2.124v-3.732a.74.74 0 0 1 .212-.546q.228-.228.561-.228c.333 0 .404.076.546.228a.71.71 0 0 1 .228.546v3.732q0 .849.319 1.411.318.546.865.819.546.258 1.229.258.652 0 1.153-.258.516-.258.819-.698c.303-.44.303-.622.303-.986h.956q0 .94-.47 1.699a3.26 3.26 0 0 1-1.259 1.198q-.79.44-1.805.44zm3.352-.076a.8.8 0 0 1-.561-.212.8.8 0 0 1-.212-.561V19.63q0-.35.212-.561a.8.8 0 0 1 .561-.212q.35 0 .561.212c.211.212.212.329.212.561v6.765q0 .334-.212.561-.212.212-.561.212m-3.033-9.39q-.774 0-1.396-.258a2.54 2.54 0 0 1-.986-.728 1.67 1.67 0 0 1-.364-1.047q0-.318.197-.531c.197-.213.293-.212.486-.212q.303 0 .485.212a.75.75 0 0 1 .197.531q0 .38.394.652.394.258.986.258c.592 0 .723-.086.986-.258q.394-.273.394-.652 0-.318.197-.531c.197-.213.293-.212.485-.212q.303 0 .486.212a.75.75 0 0 1 .197.531q0 .576-.364 1.047a2.54 2.54 0 0 1-.986.728q-.607.258-1.396.258zM67.901 27.228q-1.108 0-1.987-.546a4.07 4.07 0 0 1-1.396-1.502q-.5-.956-.5-2.154c0-1.198.182-1.517.546-2.154a4.146 4.146 0 0 1 3.641-2.063q1.183 0 2.124.561a4 4 0 0 1 1.487 1.502q.561.956.561 2.154h-.592q0 1.198-.516 2.154a3.96 3.96 0 0 1-1.38 1.502 3.7 3.7 0 0 1-1.987.546zm.303-1.365q.774 0 1.38-.364.607-.38.956-1.016.35-.652.349-1.456 0-.819-.349-1.456a2.6 2.6 0 0 0-.956-1.016 2.55 2.55 0 0 0-1.38-.379q-.759 0-1.38.379a2.7 2.7 0 0 0-.971 1.016q-.35.637-.349 1.456 0 .804.349 1.456.364.638.971 1.016a2.7 2.7 0 0 0 1.38.364m3.398 1.32a.8.8 0 0 1-.561-.212.8.8 0 0 1-.212-.561v-2.321l.288-1.608 1.259.546v3.383a.76.76 0 0 1-.228.561.74.74 0 0 1-.546.212M53.176 27.168a.8.8 0 0 1-.561-.212.8.8 0 0 1-.212-.561v-6.75q0-.35.212-.561a.8.8 0 0 1 .561-.212q.486 0 .819.47l3.14 4.535 3.14-4.535q.333-.47.819-.47.35 0 .561.212c.211.212.212.329.212.561v6.75a.8.8 0 0 1-.212.561.76.76 0 0 1-.561.212.8.8 0 0 1-.561-.212.8.8 0 0 1-.212-.561v-5.522l.394.121-2.791 3.944q-.38.531-.819.531-.44-.015-.804-.531l-2.746-3.944.395-.121v5.522a.8.8 0 0 1-.212.561.76.76 0 0 1-.561.212zM113.864 12.059q-1.107 0-1.987-.546a4.07 4.07 0 0 1-1.396-1.502q-.5-.956-.5-2.154c0-1.198.182-1.517.546-2.154a4.146 4.146 0 0 1 3.641-2.063q1.184 0 2.124.561a4 4 0 0 1 1.487 1.502q.561.956.561 2.154h-.592q0 1.198-.516 2.154a3.95 3.95 0 0 1-1.38 1.502 3.7 3.7 0 0 1-1.987.546zm.303-1.365q.774 0 1.38-.364a2.73 2.73 0 0 0 .956-1.016q.35-.652.349-1.456 0-.82-.349-1.456a2.57 2.57 0 0 0-.956-1.016 2.55 2.55 0 0 0-1.38-.379q-.759 0-1.38.379a2.7 2.7 0 0 0-.971 1.016q-.35.637-.349 1.456 0 .804.349 1.456.364.638.971 1.016a2.7 2.7 0 0 0 1.38.364m3.398 1.32a.8.8 0 0 1-.561-.212.8.8 0 0 1-.212-.561V8.92l.288-1.608 1.259.546v3.383a.76.76 0 0 1-.228.561.74.74 0 0 1-.546.212M109.174 11.817q-.197.182-.561.182-.35-.015-.546-.212l-3.686-3.959 3.474-3.883q.197-.213.546-.243.364-.03.561.152a.77.77 0 0 1 .258.485.57.57 0 0 1-.167.47l-2.746 2.943 2.912 3.125a.64.64 0 0 1 .197.47q0 .258-.243.47zm-6.007.197a.7.7 0 0 1-.531-.212.83.83 0 0 1-.197-.561V4.476q0-.35.197-.561c.197-.211.308-.212.531-.212q.35 0 .561.212a.73.73 0 0 1 .228.561v2.533h1.942v1.426h-1.942v2.806a.76.76 0 0 1-.228.561q-.212.212-.561.212M95.812 12.059q-1.137 0-2.017-.531a3.9 3.9 0 0 1-1.365-1.487q-.5-.955-.5-2.184 0-1.243.531-2.184a3.9 3.9 0 0 1 1.487-1.487q.94-.546 2.169-.546 1.213 0 2.154.546a3.8 3.8 0 0 1 1.471 1.487q.546.94.546 2.184h-.895q0 1.229-.47 2.184a3.7 3.7 0 0 1-1.259 1.487q-.804.531-1.851.531zm.273 3.383q-1.077 0-2.017-.425c-.94-.425-1.158-.698-1.593-1.244q-.197-.258-.152-.531a.7.7 0 0 1 .303-.44q.273-.182.561-.121.303.06.485.303.41.516 1.031.804c.621.288.885.288 1.411.288q.728 0 1.335-.349.622-.349.986-1.031c.364-.682.364-1.011.364-1.669V8.873l.501-1.335.986.319v3.276q0 1.198-.531 2.169a4 4 0 0 1-1.487 1.562q-.94.576-2.184.576zm.031-4.748q.789 0 1.395-.364c.606-.364.718-.576.941-1.001q.35-.637.349-1.471c-.001-.834-.116-1.047-.349-1.471q-.334-.653-.941-1.016c-.607-.363-.87-.364-1.395-.364q-.789 0-1.396.364c-.607.364-.723.582-.956 1.016q-.35.637-.349 1.471c.001.834.116 1.047.349 1.471q.349.637.956 1.001c.607.364.87.364 1.396.364M86.034 12.059q-1.229 0-2.169-.531a4.03 4.03 0 0 1-1.487-1.487q-.531-.955-.531-2.184 0-1.243.531-2.184a3.9 3.9 0 0 1 1.487-1.487q.94-.546 2.169-.546 1.213 0 2.154.546a3.8 3.8 0 0 1 1.471 1.487q.546.94.546 2.184 0 1.229-.531 2.184a3.9 3.9 0 0 1-1.471 1.487q-.94.531-2.169.531m0-1.365q.789 0 1.395-.364c.606-.364.718-.576.941-1.001q.35-.637.349-1.471c-.001-.834-.116-1.047-.349-1.471q-.334-.653-.941-1.016c-.607-.363-.87-.364-1.395-.364q-.789 0-1.396.364c-.607.364-.723.582-.956 1.016q-.35.637-.349 1.471c.001.834.116 1.047.349 1.471q.349.637.956 1.001c.607.364.87.364 1.396.364M76.629 3.716q.227 0 .41.121c.183.121.217.207.288.379l3.125 6.781q.136.303.03.546a.72.72 0 0 1-.364.349q-.334.151-.576.076c-.242-.075-.298-.177-.41-.379L76.28 5.112h.773l-2.943 6.477a.68.68 0 0 1-.41.379q-.258.076-.576-.076a.86.86 0 0 1-.41-.364q-.107-.228.046-.531l3.14-6.781q.228-.501.728-.501zM67.197 12.059q-1.228 0-2.169-.531a4.03 4.03 0 0 1-1.487-1.487q-.531-.955-.531-2.184 0-1.243.531-2.184a3.9 3.9 0 0 1 1.487-1.487q.94-.546 2.169-.546 1.214 0 2.154.546a3.8 3.8 0 0 1 1.471 1.487q.546.94.546 2.184 0 1.229-.531 2.184a3.9 3.9 0 0 1-1.471 1.487q-.94.531-2.169.531m0-1.365q.789 0 1.396-.364c.607-.364.718-.576.941-1.001q.35-.637.349-1.471c-.001-.834-.116-1.047-.349-1.471q-.334-.653-.941-1.016c-.607-.363-.87-.364-1.396-.364q-.789 0-1.395.364c-.606.364-.723.582-.956 1.016q-.35.637-.349 1.471c.001.834.116 1.047.349 1.471q.349.637.956 1.001c.607.364.87.364 1.395.364M57.864 12.15a5.9 5.9 0 0 1-2.306-.455 6 6 0 0 1-1.866-1.289 6.3 6.3 0 0 1-1.244-1.942 6.4 6.4 0 0 1-.44-2.397q0-1.274.44-2.366a6.1 6.1 0 0 1 1.244-1.926Q54.496.941 55.558.47C56.62-.001 57.034 0 57.864 0q1.168 0 2.002.303.85.303 1.699 1.001a.7.7 0 0 1 .182.197q.076.091.091.197.03.091.03.228a.64.64 0 0 1-.212.485.82.82 0 0 1-.485.212.83.83 0 0 1-.561-.197 4.5 4.5 0 0 0-1.168-.743q-.591-.258-1.577-.258-.895 0-1.684.364c-.789.364-.991.576-1.396 1.001q-.592.637-.925 1.487a4.8 4.8 0 0 0-.334 1.79q0 .97.334 1.82.334.835.925 1.471.607.637 1.396 1.001a4.1 4.1 0 0 0 1.684.349q.774 0 1.456-.258.698-.273 1.335-.743.273-.197.531-.167.273.015.455.212.182.181.182.516a.8.8 0 0 1-.061.303.9.9 0 0 1-.182.258 6 6 0 0 1-1.759.986 5.7 5.7 0 0 1-1.957.334z"/>
    </symbol>
    <symbol id="icon-logo_small_white" viewBox="0 0 149 32">
      <path fill="#f5fdfd" d="M41.625 28.02q1.49.772 2.511-.496c1.021-1.268.763-1.728.248-2.647l-3.917-7.39-2.98 8.107 4.138 2.427zm-11.697-2.317h3.889l5.326-13.346q.331-.772.248-1.517c-.083-.745-.359-.873-.91-1.131l-4.58-1.985q-.773-.385-1.545 0c-.772.385-.791.643-.828 1.158zm-16.346 0h3.82L15.857 8.882q-.055-.828-.745-1.213c-.69-.385-1.002-.239-1.628.055L9.125 9.599q-.717.275-.8 1.241c-.083.966.009 1.222.193 1.737l5.063 13.126zM5.76 28.02l4.138-2.427-2.98-8.107L3 25.152q-.773 1.544.331 2.509c1.104.965 1.545.763 2.428.359zm14.953-2.317h5.904l1.821-20.074q.111-.772-.414-1.296c-.525-.524-.782-.524-1.297-.524h-6.07q-.883 0-1.324.524c-.441.524-.423.781-.386 1.296zM4.546 31.687q-2.284 0-3.86-1.63c-1.576-1.63-1.575-2.391-1.575-3.913q0-.702.248-1.369c.248-.667.349-.882.551-1.313l5.037-9.753q-.828-2.243-.106-4.439c.722-2.196 1.414-2.498 2.8-3.104l4.58-1.875q.883-.332 1.793-.393c.91-.061 1.172.099 1.696.421q.389-1.804 1.766-2.964C18.853.195 19.454.196 20.658.196h6.07q1.806 0 3.182 1.077c1.376 1.077 1.507 1.66 1.766 2.826q.828-.318 1.717-.256c.889.062 1.165.19 1.717.448l4.635 1.875q2.121.812 2.876 2.973c.755 2.161.452 2.854-.156 4.239l5.01 10.029q.234.633.516 1.252c.282.619.283.834.283 1.265q0 2.435-1.741 4.099c-1.741 1.664-2.558 1.664-4.191 1.664q-.633 0-1.197-.255a24 24 0 0 0-1.142-.489l-3.313-1.628H10.638l-3.134 1.628q-.702.29-1.431.516c-.729.226-.996.227-1.528.227zM147.64 28.199a.75.75 0 0 1-.551-.22.82.82 0 0 1-.22-.583v-2.078h-2.22v-.205q-.835 0-1.48-.331c-.645-.331-.766-.525-1.008-.913s-.362-.84-.362-1.354q0-.834.394-1.496.41-.661 1.102-1.039.708-.393 1.622-.394h2.724q.362 0 .583.22c.221.22.22.341.22.583v7.022a.83.83 0 0 1-.236.567q-.206.22-.567.22zm-5.59-.188q-.252-.22-.236-.488c.016-.268.073-.341.189-.488l1.921-2.503h2.094l-2.692 3.354q-.268.346-.661.331c-.393-.015-.467-.079-.614-.205zm2.866-4.015h1.952v-2.913h-1.952q-.63 0-1.102.409a1.27 1.27 0 0 0-.472 1.023q0 .662.472 1.071c.472.409.682.409 1.102.409zM138.738 28.199a.83.83 0 0 1-.583-.22.82.82 0 0 1-.22-.583v-7.007q0-.362.22-.583a.82.82 0 0 1 .583-.22q.362 0 .567.22c.205.22.205.341.205.583v7.007a.86.86 0 0 1-.205.583q-.205.22-.567.22m-6.472 0a.77.77 0 0 1-.567-.22.86.86 0 0 1-.205-.583v-7.007q0-.362.205-.583a.77.77 0 0 1 .567-.22q.362 0 .583.22c.221.22.22.341.22.583v7.007a.83.83 0 0 1-.22.583q-.22.22-.583.22m.599-3.763v-1.417h5.527v1.417zM121.385 31.884a.8.8 0 0 1-.583-.236.77.77 0 0 1-.22-.567v-7.18q.016-1.243.583-2.236c.567-.993.892-1.181 1.543-1.559q.977-.582 2.204-.583 1.244 0 2.22.583a4.15 4.15 0 0 1 1.543 1.559q.582.992.583 2.236c.001 1.244-.178 1.575-.535 2.236a4.1 4.1 0 0 1-1.433 1.559q-.913.567-2.063.567a3.9 3.9 0 0 1-1.716-.378 4.2 4.2 0 0 1-1.323-1.055v4.251q0 .346-.22.567a.76.76 0 0 1-.583.236m3.526-5.039q.803 0 1.433-.378.63-.393.992-1.055.378-.677.378-1.511 0-.85-.378-1.511a2.67 2.67 0 0 0-.992-1.055 2.65 2.65 0 0 0-1.433-.394q-.787 0-1.433.394a2.67 2.67 0 0 0-.992 1.055q-.362.662-.362 1.511 0 .834.362 1.511.362.662.992 1.055.645.378 1.433.378M115.008 28.262q-1.307 0-2.33-.551a4.23 4.23 0 0 1-1.59-1.543q-.567-.992-.567-2.267 0-1.292.535-2.267a3.95 3.95 0 0 1 1.511-1.543q.96-.567 2.204-.567 1.228 0 2.11.551a3.42 3.42 0 0 1 1.338 1.496q.472.944.472 2.189a.69.69 0 0 1-.205.504.74.74 0 0 1-.52.189h-6.345v-1.26h6.298l-.646.441a3.3 3.3 0 0 0-.315-1.401q-.299-.63-.85-.992c-.551-.362-.814-.362-1.338-.362q-.897 0-1.543.394a2.54 2.54 0 0 0-.96 1.086q-.33.677-.331 1.543c-.001.866.131 1.092.394 1.543q.394.677 1.086 1.071c.692.394.992.394 1.59.394q.488 0 .992-.173.52-.19.835-.425a.83.83 0 0 1 .504-.173.67.67 0 0 1 .488.157q.267.236.283.52c.016.284-.073.352-.252.488q-.535.425-1.338.693a4.7 4.7 0 0 1-1.511.268zM107.647 28.215a.82.82 0 0 1-.583-.22.82.82 0 0 1-.22-.583v-4.503q0-.992-.488-1.464-.489-.488-1.275-.488-.819 0-1.354.567-.519.567-.519 1.449h-1.307q0-1.023.441-1.795a3.14 3.14 0 0 1 1.228-1.228q.803-.441 1.826-.441.897 0 1.59.394c.693.394.819.651 1.071 1.165q.394.756.394 1.842v4.503a.82.82 0 0 1-.22.583q-.22.22-.583.22zm-10.502 0a.82.82 0 0 1-.583-.22.82.82 0 0 1-.22-.583v-7.006q0-.362.22-.583a.82.82 0 0 1 .583-.22q.362 0 .583.22c.221.22.22.341.22.583v7.006a.83.83 0 0 1-.22.583q-.22.22-.583.22m5.259 0a.82.82 0 0 1-.583-.22.82.82 0 0 1-.22-.583v-4.503q0-.992-.488-1.464-.488-.488-1.275-.488-.819 0-1.354.567c-.535.567-.535.861-.535 1.449h-.992q0-1.023.409-1.795.41-.787 1.133-1.228c.723-.441 1.034-.441 1.653-.441q.897 0 1.59.394c.693.394.819.651 1.071 1.165q.394.756.394 1.842v4.503a.83.83 0 0 1-.22.583q-.22.22-.583.22zM90.948 28.262q-1.26 0-2.252-.567a4.3 4.3 0 0 1-1.543-1.559q-.55-.991-.551-2.236 0-1.275.551-2.267c.551-.992.871-1.176 1.512-1.543q.96-.567 2.204-.567.929 0 1.7.362.771.347 1.386 1.055.22.252.157.519c-.063.267-.157.336-.347.472a.62.62 0 0 1-.488.11 1 1 0 0 1-.488-.283q-.772-.819-1.921-.819-.803 0-1.417.378-.614.362-.96 1.023c-.346.661-.347.961-.347 1.559q0 .85.347 1.511.362.662.992 1.055.63.378 1.464.378.55 0 .96-.126a2.4 2.4 0 0 0 .772-.425.9.9 0 0 1 .52-.22.6.6 0 0 1 .472.142q.267.22.299.504.031.267-.189.488-1.134 1.055-2.834 1.055zM80.09 28.278q-1.086 0-1.953-.457a3.47 3.47 0 0 1-1.354-1.37q-.489-.897-.488-2.204v-3.873q0-.347.22-.567.236-.236.583-.236c.347 0 .42.079.567.236a.74.74 0 0 1 .236.567v3.873q0 .882.331 1.464.33.567.897.85.567.268 1.275.268.676 0 1.197-.268.535-.268.85-.724c.315-.456.315-.646.315-1.023h.992q0 .977-.488 1.763-.473.788-1.307 1.244-.82.456-1.874.457zm3.479-.079a.82.82 0 0 1-.583-.22.82.82 0 0 1-.22-.583v-7.022q0-.362.22-.583a.82.82 0 0 1 .583-.22q.362 0 .583.22c.221.22.22.341.22.583v7.022a.82.82 0 0 1-.22.583q-.22.22-.583.22m-3.149-9.746a3.75 3.75 0 0 1-1.449-.268q-.645-.284-1.023-.756a1.73 1.73 0 0 1-.378-1.086q0-.33.205-.551c.205-.221.305-.22.504-.22a.63.63 0 0 1 .504.22.78.78 0 0 1 .205.551q0 .393.409.677.41.268 1.023.268c.613 0 .751-.089 1.023-.268q.41-.284.409-.677 0-.33.205-.551c.205-.221.305-.22.504-.22a.63.63 0 0 1 .504.22.78.78 0 0 1 .205.551q0 .598-.378 1.086-.378.473-1.023.756-.63.267-1.449.268M69.59 28.262q-1.15 0-2.063-.567a4.2 4.2 0 0 1-1.449-1.559q-.519-.991-.519-2.236c0-1.245.189-1.574.567-2.236a4.304 4.304 0 0 1 3.779-2.142q1.228 0 2.204.583a4.15 4.15 0 0 1 1.543 1.559q.583.992.583 2.236h-.614q0 1.244-.535 2.236a4.1 4.1 0 0 1-1.433 1.559q-.913.567-2.063.567m.315-1.417q.803 0 1.433-.378a2.8 2.8 0 0 0 .992-1.055q.362-.677.362-1.511 0-.85-.362-1.511a2.67 2.67 0 0 0-.992-1.055 2.65 2.65 0 0 0-1.433-.394q-.787 0-1.433.394-.63.378-1.008 1.055-.362.662-.362 1.511 0 .834.362 1.511.378.662 1.008 1.055.645.378 1.433.378m3.526 1.37a.82.82 0 0 1-.582-.22.82.82 0 0 1-.22-.583v-2.409l.299-1.669 1.307.567v3.511a.8.8 0 0 1-.236.583.77.77 0 0 1-.567.22zM54.306 28.199a.83.83 0 0 1-.583-.22.82.82 0 0 1-.22-.583v-7.007q0-.362.22-.583a.82.82 0 0 1 .583-.22q.504 0 .85.488l3.259 4.708 3.259-4.708q.346-.489.85-.488.362 0 .583.22c.221.22.22.341.22.583v7.007a.82.82 0 0 1-.22.583q-.22.22-.583.22a.83.83 0 0 1-.583-.22.82.82 0 0 1-.22-.583v-5.731l.409.126-2.897 4.094q-.394.55-.85.551-.456-.016-.834-.551l-2.85-4.094.409-.126v5.731a.83.83 0 0 1-.22.583q-.22.22-.583.22zM117.3 12.517q-1.15 0-2.063-.567a4.2 4.2 0 0 1-1.449-1.559q-.519-.992-.519-2.236c0-1.244.189-1.575.567-2.236a4.304 4.304 0 0 1 3.779-2.142q1.228 0 2.204.583a4.15 4.15 0 0 1 1.543 1.559q.582.992.583 2.236h-.614q0 1.244-.535 2.236a4.1 4.1 0 0 1-1.433 1.559q-.913.567-2.063.567m.315-1.417q.803 0 1.433-.378a2.8 2.8 0 0 0 .992-1.055q.362-.677.362-1.512 0-.85-.362-1.512a2.67 2.67 0 0 0-.992-1.055 2.65 2.65 0 0 0-1.433-.394q-.787 0-1.433.394-.63.378-1.008 1.055-.362.661-.362 1.512 0 .834.362 1.512.378.662 1.008 1.055.645.378 1.433.378m3.527 1.37a.82.82 0 0 1-.583-.22.82.82 0 0 1-.22-.583V9.258l.299-1.669 1.307.567v3.511a.8.8 0 0 1-.236.583.77.77 0 0 1-.567.22M112.432 12.265q-.205.189-.583.189-.361-.016-.567-.22l-3.826-4.109 3.606-4.031q.205-.22.567-.252.378-.032.583.157a.8.8 0 0 1 .268.504.6.6 0 0 1-.173.488l-2.85 3.055 3.023 3.244a.66.66 0 0 1 .205.488q0 .267-.252.488zm-6.235.205q-.347 0-.551-.22a.86.86 0 0 1-.205-.583V4.645q0-.362.205-.583c.205-.221.32-.22.551-.22q.362 0 .583.22a.76.76 0 0 1 .236.583v2.629h2.015v1.48h-2.015v2.913a.8.8 0 0 1-.236.583q-.22.22-.583.22M98.562 12.517q-1.18 0-2.094-.551a4 4 0 0 1-1.417-1.543q-.52-.992-.52-2.267 0-1.291.551-2.267a4.03 4.03 0 0 1 1.543-1.543q.976-.567 2.251-.567 1.26 0 2.236.567a3.9 3.9 0 0 1 1.527 1.543q.567.977.567 2.267h-.929q0 1.275-.488 2.267a3.84 3.84 0 0 1-1.307 1.543q-.835.55-1.921.551zm.283 3.511q-1.118 0-2.094-.441c-.976-.441-1.202-.724-1.653-1.291q-.205-.267-.157-.551a.73.73 0 0 1 .315-.457.74.74 0 0 1 .583-.126q.315.063.504.315.425.535 1.071.835c.646.3.918.299 1.464.299q.756 0 1.386-.362.646-.361 1.023-1.071c.377-.71.378-1.05.378-1.732V9.21l.519-1.386 1.023.331v3.401q0 1.244-.551 2.252a4.17 4.17 0 0 1-1.543 1.622q-.977.598-2.267.598zm.032-4.928q.819 0 1.449-.378c.63-.378.745-.598.976-1.039q.362-.662.362-1.527c0-.865-.121-1.086-.362-1.527q-.346-.677-.976-1.055c-.63-.378-.903-.378-1.449-.378q-.819 0-1.449.378c-.63.378-.75.604-.992 1.055q-.362.661-.362 1.527c0 .866.121 1.086.362 1.527q.362.661.992 1.039c.63.378.903.378 1.449.378M88.412 12.517q-1.275 0-2.252-.551a4.2 4.2 0 0 1-1.543-1.543q-.55-.992-.551-2.267 0-1.291.551-2.267a4.03 4.03 0 0 1 1.543-1.543q.976-.567 2.252-.567 1.26 0 2.236.567a3.9 3.9 0 0 1 1.527 1.543q.567.977.567 2.267 0 1.275-.551 2.267a4.06 4.06 0 0 1-1.527 1.543q-.976.55-2.252.551m0-1.417q.819 0 1.449-.378c.63-.378.745-.598.976-1.039q.362-.662.362-1.527c0-.865-.121-1.086-.362-1.527q-.346-.677-.976-1.055c-.63-.378-.903-.378-1.449-.378q-.819 0-1.449.378c-.63.378-.75.604-.992 1.055q-.362.661-.362 1.527c0 .866.121 1.086.362 1.527q.362.661.992 1.039c.63.378.903.378 1.449.378M78.651 3.858q.236 0 .425.126c.189.126.226.215.299.394l3.244 7.038q.142.315.031.567a.75.75 0 0 1-.378.362q-.346.157-.598.079c-.252-.078-.31-.184-.425-.394l-2.96-6.723h.803l-3.055 6.723a.71.71 0 0 1-.425.394q-.267.078-.598-.079a.9.9 0 0 1-.425-.378q-.11-.236.047-.551l3.259-7.038q.236-.52.756-.52M68.86 12.517q-1.275 0-2.252-.551a4.2 4.2 0 0 1-1.543-1.543q-.55-.992-.551-2.267 0-1.291.551-2.267a4.03 4.03 0 0 1 1.543-1.543q.976-.567 2.252-.567 1.26 0 2.236.567a3.9 3.9 0 0 1 1.527 1.543q.567.977.567 2.267 0 1.275-.551 2.267a4.07 4.07 0 0 1-1.527 1.543q-.976.55-2.252.551m0-1.417q.819 0 1.449-.378c.63-.378.745-.598.976-1.039q.362-.662.362-1.527c0-.865-.121-1.086-.362-1.527q-.346-.677-.976-1.055c-.63-.378-.903-.378-1.449-.378q-.819 0-1.449.378c-.63.378-.751.604-.992 1.055q-.362.661-.362 1.527c0 .866.121 1.086.362 1.527q.362.661.992 1.039c.63.378.903.378 1.449.378M59.173 12.612q-1.275 0-2.393-.472a6.2 6.2 0 0 1-1.937-1.338 6.5 6.5 0 0 1-1.291-2.015 6.7 6.7 0 0 1-.457-2.488q0-1.323.457-2.456a6.3 6.3 0 0 1 1.291-2Q55.677.977 56.78.489c1.103-.488 1.532-.488 2.393-.488q1.212 0 2.078.315.882.315 1.764 1.039a.7.7 0 0 1 .189.205.4.4 0 0 1 .095.205.8.8 0 0 1 .031.236.66.66 0 0 1-.22.504.85.85 0 0 1-.504.22.87.87 0 0 1-.583-.205 4.6 4.6 0 0 0-1.212-.772q-.614-.267-1.637-.268-.929 0-1.748.378c-.819.378-1.029.598-1.449 1.039q-.614.661-.961 1.543a5 5 0 0 0-.346 1.858q0 1.008.346 1.889.346.865.961 1.527.63.661 1.449 1.039a4.3 4.3 0 0 0 1.748.362q.803 0 1.511-.268a6 6 0 0 0 1.386-.771q.284-.204.551-.173a.67.67 0 0 1 .472.22q.189.189.189.535 0 .158-.063.315a.9.9 0 0 1-.189.268 6.3 6.3 0 0 1-1.826 1.023 6 6 0 0 1-2.031.346z" style="fill:var(--color3, #f5fdfd)"/>
    </symbol>
    <symbol id="icon-logo" viewBox="0 0 144 32">
      <path d="M40.959 26.994q1.435.744 2.419-.478c.984-1.222.735-1.665.239-2.55l-3.774-7.12-2.871 7.81zm-11.27-2.231h3.747l5.131-12.858q.319-.744.239-1.461c-.08-.717-.345-.841-.877-1.089l-4.412-1.913q-.744-.372-1.489 0c-.745.372-.762.62-.797 1.116zm-15.748 0h3.681L16.134 8.558q-.053-.797-.718-1.169c-.665-.372-.966-.23-1.568.053l-4.2 1.806q-.691.266-.771 1.195c-.08.929.009 1.178.186 1.674l4.878 12.645zm-7.535 2.231 3.987-2.338-2.871-7.81-3.774 7.385q-.744 1.488.319 2.417c1.063.929 1.488.735 2.339.345zm14.406-2.231H26.5l1.754-19.34q.106-.744-.399-1.249c-.505-.505-.753-.505-1.249-.505h-5.847q-.85 0-1.276.505c-.426.505-.407.753-.372 1.249zM5.236 30.528q-2.2 0-3.718-1.57C0 27.388 0 26.654 0 25.188q0-.676.239-1.319c.239-.643.336-.85.531-1.265l4.852-9.396q-.798-2.161-.102-4.277c.696-2.116 1.362-2.407 2.698-2.991l4.412-1.806q.85-.32 1.728-.378c.878-.058 1.129.096 1.634.406q.374-1.739 1.701-2.855C19.02.191 19.599.19 20.759.19h5.847q1.74 0 3.066 1.037c1.326 1.037 1.452 1.599 1.701 2.722q.798-.306 1.654-.247c.856.059 1.123.183 1.654.431l4.465 1.806q2.043.782 2.771 2.864c.728 2.082.435 2.75-.15 4.084l4.827 9.662q.225.61.497 1.206c.272.596.272.803.272 1.218q0 2.346-1.677 3.949c-1.677 1.603-2.464 1.603-4.037 1.603q-.61 0-1.153-.245a24 24 0 0 0-1.1-.471l-3.192-1.569H11.106l-3.019 1.569q-.676.278-1.378.497c-.702.219-.959.219-1.473.219zM143.095 27.168a.72.72 0 0 1-.531-.212.8.8 0 0 1-.212-.561v-2.002h-2.139v-.197q-.804 0-1.427-.319c-.623-.319-.737-.506-.971-.88q-.348-.561-.348-1.305-.001-.804.379-1.441a2.8 2.8 0 0 1 1.061-1.001q.683-.38 1.563-.379h2.624q.35 0 .561.212c.211.212.213.329.213.561v6.765a.8.8 0 0 1-.228.546q-.197.212-.547.212zm-5.384-.182q-.245-.212-.228-.47c.017-.258.071-.329.181-.47l1.851-2.412h2.019l-2.595 3.231q-.258.334-.637.319-.378-.015-.591-.197zm2.76-3.868h1.881v-2.806h-1.881q-.607 0-1.061.394a1.22 1.22 0 0 0-.455.986q0 .638.455 1.031.455.394 1.061.394zM134.519 27.168a.8.8 0 0 1-.561-.212.79.79 0 0 1-.213-.561v-6.75q0-.35.213-.561a.8.8 0 0 1 .561-.212q.349 0 .545.212.198.213.197.561v6.75q0 .334-.197.561-.197.212-.545.212m-6.235 0a.74.74 0 0 1-.546-.212.83.83 0 0 1-.197-.561v-6.75q0-.35.197-.561a.74.74 0 0 1 .546-.212q.35 0 .561.212c.211.212.212.329.212.561v6.75q0 .334-.212.561a.76.76 0 0 1-.561.212m.576-3.626v-1.365h5.324v1.365zM117.801 30.717a.76.76 0 0 1-.561-.227.74.74 0 0 1-.212-.546v-6.917q.015-1.199.561-2.154c.546-.955.86-1.138 1.487-1.502q.94-.561 2.124-.561 1.198 0 2.139.561a4 4 0 0 1 1.487 1.502q.561.955.561 2.154c0 1.199-.172 1.517-.516 2.154a3.95 3.95 0 0 1-1.38 1.502 3.7 3.7 0 0 1-1.987.546 3.8 3.8 0 0 1-1.653-.364 4 4 0 0 1-1.274-1.016v4.096a.74.74 0 0 1-.212.546.73.73 0 0 1-.561.227zm3.398-4.854q.774 0 1.38-.364.607-.38.956-1.016.364-.652.364-1.456 0-.819-.364-1.456a2.57 2.57 0 0 0-.956-1.016 2.55 2.55 0 0 0-1.38-.379q-.759 0-1.38.379a2.6 2.6 0 0 0-.956 1.016q-.35.637-.349 1.456 0 .804.349 1.456.349.637.956 1.016a2.7 2.7 0 0 0 1.38.364M111.658 27.228q-1.259 0-2.245-.531a4.1 4.1 0 0 1-1.532-1.487q-.546-.956-.546-2.184 0-1.243.516-2.184a3.8 3.8 0 0 1 1.456-1.487q.926-.546 2.124-.546 1.183 0 2.033.531.85.516 1.289 1.441.455.91.455 2.108a.66.66 0 0 1-.197.485.7.7 0 0 1-.501.182h-6.113v-1.213h6.068l-.622.425a3.2 3.2 0 0 0-.303-1.35q-.288-.607-.819-.956c-.531-.349-.784-.349-1.289-.349q-.864 0-1.487.379a2.44 2.44 0 0 0-.925 1.047q-.319.652-.319 1.487c0 .835.126 1.052.379 1.487q.38.652 1.047 1.032c.667.38.956.379 1.532.379q.47 0 .956-.167.501-.182.804-.409a.8.8 0 0 1 .485-.167.65.65 0 0 1 .47.152q.258.228.273.501c.015.273-.071.339-.243.47q-.516.41-1.289.667a4.5 4.5 0 0 1-1.456.258zM104.566 27.183a.8.8 0 0 1-.561-.212.8.8 0 0 1-.212-.561v-4.338q0-.955-.47-1.411-.47-.47-1.229-.47-.789 0-1.305.546-.501.546-.501 1.395h-1.259q0-.986.425-1.729.425-.759 1.183-1.183.773-.425 1.76-.425.864 0 1.532.379c.668.379.789.627 1.032 1.123q.38.728.379 1.775v4.338a.8.8 0 0 1-.212.561.76.76 0 0 1-.561.212zm-10.118 0a.8.8 0 0 1-.561-.212.8.8 0 0 1-.212-.561v-6.75q0-.35.212-.561a.8.8 0 0 1 .561-.212q.35 0 .561.212c.211.212.212.329.212.561v6.75a.8.8 0 0 1-.212.561.76.76 0 0 1-.561.212m5.067 0a.8.8 0 0 1-.561-.212.8.8 0 0 1-.212-.561v-4.338q0-.955-.47-1.411-.47-.47-1.229-.47-.789 0-1.305.546c-.516.546-.516.829-.516 1.395h-.956q0-.986.394-1.729.395-.759 1.092-1.183c.697-.424.996-.425 1.593-.425q.865 0 1.532.379c.667.379.789.627 1.031 1.123q.38.728.379 1.775v4.338a.8.8 0 0 1-.212.561.76.76 0 0 1-.561.212zM88.477 27.228q-1.213 0-2.169-.546a4.15 4.15 0 0 1-1.487-1.502q-.531-.956-.531-2.154 0-1.228.531-2.184c.531-.956.839-1.133 1.456-1.487q.925-.546 2.124-.546.895 0 1.638.349.743.334 1.335 1.016.212.243.152.501c-.06.258-.152.324-.334.455a.6.6 0 0 1-.47.106.98.98 0 0 1-.47-.273q-.742-.789-1.851-.789-.774 0-1.365.364-.592.349-.925.986c-.333.637-.334.925-.334 1.502q0 .819.334 1.456.349.637.956 1.016.607.364 1.411.364.53 0 .925-.121a2.3 2.3 0 0 0 .743-.41.88.88 0 0 1 .501-.212.57.57 0 0 1 .455.137q.258.212.288.485a.55.55 0 0 1-.182.47q-1.092 1.017-2.73 1.016zM78.016 27.243q-1.047 0-1.881-.44a3.34 3.34 0 0 1-1.305-1.32q-.47-.864-.47-2.124v-3.732a.74.74 0 0 1 .212-.546q.228-.228.561-.227c.333.001.405.076.546.227a.71.71 0 0 1 .227.546v3.732q0 .85.319 1.411.319.546.865.819.546.258 1.229.258.652 0 1.153-.258.516-.258.819-.698c.303-.44.303-.622.303-.986h.956q0 .94-.47 1.699a3.26 3.26 0 0 1-1.259 1.198q-.788.44-1.805.44zm3.353-.075a.8.8 0 0 1-.561-.212.8.8 0 0 1-.212-.561V19.63q0-.35.212-.561a.8.8 0 0 1 .561-.212q.35 0 .561.212c.211.212.212.329.212.561v6.765q0 .334-.212.561a.76.76 0 0 1-.561.212m-3.034-9.39q-.774 0-1.395-.258a2.54 2.54 0 0 1-.986-.728 1.67 1.67 0 0 1-.364-1.047q0-.318.197-.531c.197-.213.293-.212.485-.212q.303 0 .485.212a.75.75 0 0 1 .197.531q0 .38.394.652.395.258.986.258c.591 0 .723-.086.986-.258q.394-.273.394-.652 0-.318.197-.531c.197-.213.293-.212.485-.212q.303 0 .485.212a.75.75 0 0 1 .197.531q0 .576-.364 1.047a2.54 2.54 0 0 1-.986.728q-.607.258-1.396.258zM67.9 27.228q-1.108 0-1.987-.546a4.07 4.07 0 0 1-1.396-1.502q-.501-.956-.501-2.154c0-1.198.182-1.517.546-2.154a4.146 4.146 0 0 1 3.641-2.063q1.184 0 2.124.561a4 4 0 0 1 1.487 1.502q.561.956.561 2.154h-.592q0 1.198-.516 2.154a3.95 3.95 0 0 1-1.38 1.502 3.7 3.7 0 0 1-1.987.546m.304-1.365q.774 0 1.38-.364a2.73 2.73 0 0 0 .956-1.016q.35-.652.349-1.456 0-.819-.349-1.456a2.57 2.57 0 0 0-.956-1.016 2.55 2.55 0 0 0-1.38-.379q-.759 0-1.38.379a2.7 2.7 0 0 0-.971 1.016q-.35.637-.349 1.456 0 .804.349 1.456.364.637.971 1.016a2.7 2.7 0 0 0 1.38.364m3.397 1.32a.8.8 0 0 1-.561-.212.8.8 0 0 1-.212-.561v-2.321l.288-1.608 1.259.546v3.383a.76.76 0 0 1-.228.561.74.74 0 0 1-.546.212M53.176 27.168a.8.8 0 0 1-.561-.212.8.8 0 0 1-.212-.561v-6.75q0-.35.212-.561a.8.8 0 0 1 .561-.212q.486 0 .819.47l3.14 4.535 3.14-4.535q.334-.47.819-.47.35 0 .561.212c.211.212.212.329.212.561v6.75q0 .334-.212.561a.76.76 0 0 1-.561.212.8.8 0 0 1-.561-.212.8.8 0 0 1-.212-.561v-5.522l.394.121-2.791 3.944q-.38.531-.819.531-.44-.015-.804-.531l-2.746-3.944.394-.121v5.522q0 .334-.212.561a.76.76 0 0 1-.561.212M113.865 12.059q-1.108 0-1.987-.546a4.06 4.06 0 0 1-1.395-1.502q-.501-.956-.501-2.154c0-1.198.182-1.517.546-2.154a4.146 4.146 0 0 1 3.641-2.063q1.184 0 2.124.561a4 4 0 0 1 1.487 1.502q.561.956.561 2.154h-.592q0 1.198-.516 2.154a3.95 3.95 0 0 1-1.38 1.502 3.7 3.7 0 0 1-1.987.546zm.303-1.365q.774 0 1.38-.364.607-.38.956-1.016.35-.652.349-1.456 0-.82-.349-1.456a2.57 2.57 0 0 0-.956-1.016 2.55 2.55 0 0 0-1.38-.379q-.759 0-1.38.379a2.7 2.7 0 0 0-.971 1.016q-.35.637-.349 1.456 0 .804.349 1.456.364.638.971 1.016a2.7 2.7 0 0 0 1.38.364m3.398 1.32a.8.8 0 0 1-.561-.212.8.8 0 0 1-.212-.561V8.92l.288-1.608 1.259.546v3.383q0 .334-.227.561a.74.74 0 0 1-.546.212zM109.175 11.817q-.197.182-.561.182-.35-.015-.546-.212l-3.686-3.959 3.474-3.883q.197-.212.546-.243.364-.03.561.152a.77.77 0 0 1 .258.485.57.57 0 0 1-.167.47l-2.745 2.943 2.912 3.125a.64.64 0 0 1 .197.47q0 .258-.243.47m-6.007.197a.7.7 0 0 1-.531-.212.83.83 0 0 1-.197-.561V4.476q0-.35.197-.561c.197-.211.308-.212.531-.212q.35 0 .561.212a.73.73 0 0 1 .228.561v2.533h1.942v1.426h-1.942v2.806a.76.76 0 0 1-.228.561.76.76 0 0 1-.561.212M95.813 12.059q-1.137 0-2.017-.531a3.9 3.9 0 0 1-1.365-1.487q-.501-.955-.501-2.184 0-1.243.531-2.184a3.9 3.9 0 0 1 1.487-1.487q.94-.546 2.169-.546 1.213 0 2.154.546a3.8 3.8 0 0 1 1.471 1.487q.546.94.546 2.184h-.895q0 1.229-.47 2.184a3.7 3.7 0 0 1-1.259 1.487q-.804.531-1.851.531m.273 3.383q-1.078 0-2.017-.425c-.939-.425-1.158-.698-1.593-1.244q-.197-.258-.152-.531a.7.7 0 0 1 .303-.44q.273-.182.561-.121.303.06.485.303.41.516 1.031.804c.621.288.885.288 1.411.288q.728 0 1.335-.349.622-.349.986-1.031c.364-.682.364-1.011.364-1.669V8.873l.501-1.335.986.319v3.276q0 1.198-.531 2.169a4 4 0 0 1-1.487 1.562q-.94.576-2.184.576zm.03-4.748q.789 0 1.395-.364c.606-.364.718-.576.941-1.001q.35-.637.349-1.471c-.001-.834-.116-1.047-.349-1.471q-.334-.653-.941-1.016c-.607-.363-.87-.364-1.395-.364q-.789 0-1.396.364c-.607.364-.723.581-.956 1.016q-.35.637-.349 1.471c.001.834.116 1.047.349 1.471q.349.637.956 1.001c.607.364.87.364 1.396.364M86.034 12.059q-1.229 0-2.169-.531a4.03 4.03 0 0 1-1.487-1.487q-.531-.955-.531-2.184 0-1.243.531-2.184a3.9 3.9 0 0 1 1.487-1.487q.94-.546 2.169-.546 1.213 0 2.154.546a3.8 3.8 0 0 1 1.471 1.487q.546.94.546 2.184 0 1.229-.531 2.184a3.9 3.9 0 0 1-1.471 1.487q-.94.531-2.169.531m0-1.365q.789 0 1.396-.364c.607-.364.718-.576.941-1.001q.35-.637.349-1.471c-.001-.834-.116-1.047-.349-1.471q-.334-.653-.941-1.016c-.607-.363-.87-.364-1.396-.364q-.789 0-1.395.364c-.606.364-.723.581-.956 1.016q-.35.637-.349 1.471c.001.834.116 1.047.349 1.471q.349.637.956 1.001c.607.364.87.364 1.395.364M76.631 3.716q.227 0 .41.121c.183.121.217.207.288.379l3.125 6.781q.136.303.03.546a.72.72 0 0 1-.364.349q-.334.151-.576.076c-.242-.075-.298-.177-.41-.379l-2.852-6.477h.774l-2.943 6.477a.68.68 0 0 1-.409.379q-.258.076-.577-.076a.85.85 0 0 1-.409-.364q-.106-.228.045-.531l3.14-6.781q.227-.501.728-.501zM67.197 12.059q-1.228 0-2.169-.531a4.03 4.03 0 0 1-1.487-1.487q-.531-.955-.531-2.184 0-1.243.531-2.184a3.9 3.9 0 0 1 1.487-1.487q.94-.546 2.169-.546 1.214 0 2.154.546a3.8 3.8 0 0 1 1.471 1.487q.546.94.546 2.184 0 1.229-.531 2.184a3.9 3.9 0 0 1-1.471 1.487q-.94.531-2.169.531m0-1.365q.789 0 1.396-.364c.607-.364.718-.576.94-1.001q.35-.637.349-1.471c-.001-.834-.116-1.047-.349-1.471q-.334-.653-.94-1.016c-.606-.363-.87-.364-1.396-.364s-.991.121-1.396.364a2.6 2.6 0 0 0-.956 1.016q-.35.637-.349 1.471c.001.834.116 1.047.349 1.471q.349.637.956 1.001c.607.364.87.364 1.396.364M57.866 12.15a5.9 5.9 0 0 1-2.306-.455 6 6 0 0 1-1.866-1.289 6.3 6.3 0 0 1-1.244-1.942 6.4 6.4 0 0 1-.44-2.397q0-1.274.44-2.366a6.1 6.1 0 0 1 1.244-1.926Q54.498.941 55.56.47C56.622-.001 57.036 0 57.866 0q1.168 0 2.002.303.85.303 1.699 1.001a.7.7 0 0 1 .182.197.4.4 0 0 1 .091.197q.03.091.03.228a.64.64 0 0 1-.212.485.82.82 0 0 1-.485.212.83.83 0 0 1-.561-.197 4.4 4.4 0 0 0-1.168-.743q-.591-.258-1.578-.258-.895 0-1.684.364c-.789.364-.991.576-1.395 1.001q-.592.637-.925 1.487a4.8 4.8 0 0 0-.334 1.79q0 .97.334 1.82.334.835.925 1.471.607.637 1.395 1.001a4.1 4.1 0 0 0 1.684.349q.774 0 1.456-.258.697-.273 1.335-.743.273-.197.531-.167.273.015.455.212.182.181.182.516a.8.8 0 0 1-.061.303.9.9 0 0 1-.182.258 6 6 0 0 1-1.76.986 5.7 5.7 0 0 1-1.957.334z"/>
    </symbol>
    <symbol id="icon-menu" viewBox="0 0 32 32">
      <path d="M4.936 24.295q-.481 0-.808-.329c-.327-.329-.327-.493-.327-.82q0-.483.327-.807c.327-.324.488-.323.808-.323h22.127q.481 0 .812.329c.331.329.331.49.331.812q0 .491-.331.814c-.331.323-.492.323-.812.323zm0-7.159q-.481 0-.808-.329c-.327-.329-.327-.49-.327-.812q0-.483.327-.806c.327-.323.488-.323.808-.323h22.127q.481 0 .812.329c.331.329.331.49.331.812q0 .483-.331.806c-.331.323-.492.323-.812.323zm0-7.152q-.481 0-.808-.329c-.327-.329-.327-.493-.327-.82q0-.483.327-.806c.327-.323.488-.323.808-.323h22.127q.481 0 .812.329c.331.329.331.49.331.812q0 .492-.331.815c-.331.323-.492.323-.812.323z"/>
    </symbol>
    <symbol id="icon-Relume" viewBox="0 0 32 32">
      <path d="M27.64 9.493c.235.405.359.865.36 1.333v10.333a2.73 2.73 0 0 1-.36 1.333l-.2.333a2.53 2.53 0 0 1-.973.973l-8.947 5.173a2.67 2.67 0 0 1-1.333.36h-.373c-.469.004-.93-.12-1.333-.36l-8.96-5.16a2.84 2.84 0 0 1-.973-.973l-.187-.333a2.67 2.67 0 0 1-.36-1.333V10.839c.001-.468.125-.928.36-1.333l.187-.333c.234-.404.569-.74.973-.973l8.947-5.173a2.67 2.67 0 0 1 1.333-.36h.387c.468.001.928.125 1.333.36l8.947 5.16c.406.235.746.57.987.973l.187.333zM15.8 5.333 8 9.84l8 4.613 8-4.613-7.813-4.507zM17.333 26l7.8-4.507.2-.333v-9.013l-8 4.627v9.227z"/>
    </symbol>
    <symbol id="icon-Youtube" viewBox="0 0 32 32">
      <path d="M28.791 9.604a3.35 3.35 0 0 0-2.35-2.354C24.353 6.677 16 6.667 16 6.667s-8.352-.009-10.441.539a3.416 3.416 0 0 0-2.354 2.371c-.551 2.088-.556 6.419-.556 6.419s-.005 4.352.541 6.419a3.34 3.34 0 0 0 2.351 2.353c2.109.573 10.44.583 10.44.583s8.353.009 10.441-.537a3.36 3.36 0 0 0 2.356-2.35c.552-2.087.556-6.416.556-6.416s.027-4.353-.543-6.441zM13.328 20.007l.007-8 6.943 4.007z"/>
    </symbol>
  </defs>
</svg>
